<svg xmlns="http://www.w3.org/2000/svg" width="25" height="25" viewBox="0 0 25 25"><path d="M278.106,211.479H267.944a.812.812,0,0,0-.812.812v3.246a.812.812,0,0,0,.812.812h5.723a7.64,7.64,0,0,1-3.288,3.854l2.44,4.224a12.215,12.215,0,0,0,6.229-10.682,8.234,8.234,0,0,0-.14-1.6A.816.816,0,0,0,278.106,211.479Z" transform="translate(-254.046 -201.102)" fill="#167ee6"/><path d="M45.194,337.641a7.581,7.581,0,0,1-6.559-3.794l-4.224,2.435a12.447,12.447,0,0,0,17.011,4.566v-.006l-2.44-4.224A7.526,7.526,0,0,1,45.194,337.641Z" transform="translate(-32.737 -317.516)" fill="#12b347"/><path d="M262.229,395.009V395l-2.44-4.224A7.526,7.526,0,0,1,256,391.8v4.874A12.436,12.436,0,0,0,262.229,395.009Z" transform="translate(-243.486 -371.678)" fill="#0f993e"/><path d="M4.874,134.342A7.526,7.526,0,0,1,5.9,130.554l-4.224-2.435a12.4,12.4,0,0,0,0,12.445L5.9,138.13A7.526,7.526,0,0,1,4.874,134.342Z" transform="translate(0 -121.842)" fill="#ffd500"/><path d="M45.194,4.874A7.548,7.548,0,0,1,50.008,6.6.809.809,0,0,0,51.1,6.554l2.3-2.3a.819.819,0,0,0-.047-1.2A12.43,12.43,0,0,0,34.411,6.234l4.224,2.435A7.581,7.581,0,0,1,45.194,4.874Z" transform="translate(-32.737 0)" fill="#ff4b26"/><path d="M260.814,6.6a.809.809,0,0,0,1.089-.049l2.3-2.3a.819.819,0,0,0-.047-1.2A12.42,12.42,0,0,0,256,0V4.874A7.548,7.548,0,0,1,260.814,6.6Z" transform="translate(-243.478)" fill="#d93f21"/></svg>