<svg xmlns="http://www.w3.org/2000/svg" width="25" height="25" viewBox="0 0 25 25"><g transform="translate(0 0.001)"><circle cx="12.5" cy="12.5" r="12.5" transform="translate(0 -0.001)" fill="#007ab9"/><g transform="translate(5.438 4.864)"><path d="M42.094,32.772v5.556H38.873V33.144c0-1.3-.465-2.19-1.631-2.19a1.762,1.762,0,0,0-1.652,1.178,2.2,2.2,0,0,0-.107.785v5.411H32.261s.043-8.78,0-9.688h3.222v1.373c-.006.011-.016.021-.021.032h.021v-.032a3.2,3.2,0,0,1,2.9-1.6c2.119,0,3.708,1.385,3.708,4.36Zm-13.2-8.8a1.679,1.679,0,1,0-.042,3.348h.021a1.679,1.679,0,1,0,.021-3.348ZM27.259,38.328h3.22V28.639h-3.22Z" transform="translate(-27.068 -23.969)" fill="#f1f2f2"/></g></g></svg>