<svg xmlns="http://www.w3.org/2000/svg" xmlns:xlink="http://www.w3.org/1999/xlink" width="18" height="23" viewBox="0 0 18 23">
  <defs>
    <clipPath id="clip-path">
      <rect id="Rectangle_1828" data-name="Rectangle 1828" width="18" height="23" transform="translate(1333.679 824.002)" fill="#06425c" stroke="#06425c" stroke-width="1"/>
    </clipPath>
  </defs>
  <g id="Mask_Group_5" data-name="Mask Group 5" transform="translate(-1333.679 -824.002)" clip-path="url(#clip-path)">
    <g id="unlock" transform="translate(1327.832 824.003)">
      <path id="Path_7073" data-name="Path 7073" d="M28.049,32.157H41.255a1.805,1.805,0,0,0,1.8-1.8V20.163a1.805,1.805,0,0,0-1.8-1.8h-.3V16.475A6.29,6.29,0,0,0,29.039,13.6l-.39.81,1.621.81.39-.81a4.5,4.5,0,0,1,8.524,2.069v1.889H28.049a1.805,1.805,0,0,0-1.8,1.8V30.358a1.805,1.805,0,0,0,1.8,1.8Zm0-11.994H41.255V30.358H28.049Z" transform="translate(-19.673 -10.118)" fill="#06425c"/>
      <path id="Path_7074" data-name="Path 7074" d="M45.268,46.257h1.8v3.6h-1.8Z" transform="translate(-31.19 -32.014)" fill="#06425c"/>
      <g id="Group_7185" data-name="Group 7185" transform="translate(0.046 29.382)">
        <path id="Path_7075" data-name="Path 7075" d="M1.12-1.771a.713.713,0,0,1-.162.06.731.731,0,0,1-.176.021.6.6,0,0,1-.433-.152.546.546,0,0,1-.16-.414.545.545,0,0,1,.16-.414.6.6,0,0,1,.433-.153A.731.731,0,0,1,.958-2.8a.713.713,0,0,1,.162.06v.226a.644.644,0,0,0-.155-.078A.511.511,0,0,0,.8-2.619a.3.3,0,0,0-.237.1.384.384,0,0,0-.086.266.386.386,0,0,0,.086.266.3.3,0,0,0,.237.1.523.523,0,0,0,.161-.024A.626.626,0,0,0,1.12-2Z" transform="translate(-0.189 2.823)" fill="#06425c"/>
      </g>
      <g id="Group_7186" data-name="Group 7186" transform="translate(1.199 29.655)">
        <path id="Path_7076" data-name="Path 7076" d="M.93-1.888a.363.363,0,0,0-.07-.023A.287.287,0,0,0,.793-1.92a.191.191,0,0,0-.156.065.278.278,0,0,0-.054.185v.378H.321v-.82H.583v.135A.333.333,0,0,1,.7-2.094a.313.313,0,0,1,.157-.038l.028,0,.045,0Z" transform="translate(-0.321 2.131)" fill="#06425c"/>
      </g>
      <g id="Group_7187" data-name="Group 7187" transform="translate(1.878 29.655)">
        <path id="Path_7077" data-name="Path 7077" d="M1.044-1.7v.075H.431A.2.2,0,0,0,.5-1.49a.248.248,0,0,0,.16.046.618.618,0,0,0,.169-.024.9.9,0,0,0,.178-.074v.2a1.106,1.106,0,0,1-.186.053.966.966,0,0,1-.186.018.5.5,0,0,1-.347-.113A.409.409,0,0,1,.163-1.7a.413.413,0,0,1,.121-.315.464.464,0,0,1,.333-.115.418.418,0,0,1,.31.117.42.42,0,0,1,.116.31Zm-.27-.087a.166.166,0,0,0-.044-.12.15.15,0,0,0-.114-.046.179.179,0,0,0-.124.043.2.2,0,0,0-.059.123Z" transform="translate(-0.163 2.131)" fill="#06425c"/>
      </g>
      <g id="Group_7188" data-name="Group 7188" transform="translate(2.895 29.655)">
        <path id="Path_7078" data-name="Path 7078" d="M.593-1.66a.226.226,0,0,0-.124.028.092.092,0,0,0-.041.082.1.1,0,0,0,.033.079.14.14,0,0,0,.092.028A.166.166,0,0,0,.678-1.5.185.185,0,0,0,.73-1.63v-.03Zm.4-.1v.468H.73v-.121A.339.339,0,0,1,.611-1.3.355.355,0,0,1,.45-1.27a.292.292,0,0,1-.207-.074.252.252,0,0,1-.08-.193.237.237,0,0,1,.1-.211.565.565,0,0,1,.312-.068H.73v-.021a.1.1,0,0,0-.049-.09.312.312,0,0,0-.153-.029.706.706,0,0,0-.157.017.544.544,0,0,0-.134.05v-.2A1.6,1.6,0,0,1,.4-2.12a1.378,1.378,0,0,1,.171-.011.474.474,0,0,1,.32.088.362.362,0,0,1,.1.284Z" transform="translate(-0.163 2.131)" fill="#06425c"/>
      </g>
      <g id="Group_7189" data-name="Group 7189" transform="translate(3.864 29.442)">
        <path id="Path_7079" data-name="Path 7079" d="M.444-2.67v.233h.27v.187H.444V-1.9a.1.1,0,0,0,.023.077.141.141,0,0,0,.09.02H.691v.187H.466a.308.308,0,0,1-.221-.064A.306.306,0,0,1,.181-1.9V-2.25H.051v-.187h.13V-2.67Z" transform="translate(-0.051 2.67)" fill="#06425c"/>
      </g>
      <g id="Group_7190" data-name="Group 7190" transform="translate(4.625 29.655)">
        <path id="Path_7080" data-name="Path 7080" d="M1.044-1.7v.075H.431A.2.2,0,0,0,.5-1.49a.248.248,0,0,0,.16.046.618.618,0,0,0,.169-.024.9.9,0,0,0,.178-.074v.2a1.106,1.106,0,0,1-.186.053.966.966,0,0,1-.186.018.5.5,0,0,1-.347-.113A.409.409,0,0,1,.163-1.7a.413.413,0,0,1,.121-.315.464.464,0,0,1,.333-.115.418.418,0,0,1,.31.117.42.42,0,0,1,.116.31Zm-.27-.087a.166.166,0,0,0-.044-.12.15.15,0,0,0-.114-.046.179.179,0,0,0-.124.043.2.2,0,0,0-.059.123Z" transform="translate(-0.163 2.131)" fill="#06425c"/>
      </g>
      <g id="Group_7191" data-name="Group 7191" transform="translate(5.647 29.355)">
        <path id="Path_7081" data-name="Path 7081" d="M.788-2.452v-.439h.264v1.139H.788v-.119a.345.345,0,0,1-.119.106.33.33,0,0,1-.152.033.305.305,0,0,1-.249-.12.477.477,0,0,1-.1-.31.478.478,0,0,1,.1-.31.305.305,0,0,1,.249-.12.32.32,0,0,1,.151.034.363.363,0,0,1,.12.105Zm-.173.531a.149.149,0,0,0,.128-.061.305.305,0,0,0,.044-.179.3.3,0,0,0-.044-.178A.148.148,0,0,0,.616-2.4a.148.148,0,0,0-.128.062.3.3,0,0,0-.044.178.3.3,0,0,0,.044.179A.148.148,0,0,0,.616-1.921Z" transform="translate(-0.172 2.891)" fill="#06425c"/>
      </g>
      <g id="Group_7192" data-name="Group 7192" transform="translate(7.302 29.355)">
        <path id="Path_7082" data-name="Path 7082" d="M.757-1.921a.15.15,0,0,0,.129-.061A.305.305,0,0,0,.93-2.161a.3.3,0,0,0-.044-.178A.149.149,0,0,0,.757-2.4a.151.151,0,0,0-.13.062.3.3,0,0,0-.044.178.3.3,0,0,0,.044.178.15.15,0,0,0,.13.062ZM.583-2.452A.372.372,0,0,1,.7-2.557a.325.325,0,0,1,.152-.034.307.307,0,0,1,.25.12.479.479,0,0,1,.1.31.478.478,0,0,1-.1.31.307.307,0,0,1-.25.12A.333.333,0,0,1,.7-1.764a.363.363,0,0,1-.12-.106v.119H.321V-2.891H.583Z" transform="translate(-0.321 2.891)" fill="#06425c"/>
      </g>
      <g id="Group_7193" data-name="Group 7193" transform="translate(8.268 29.675)">
        <path id="Path_7083" data-name="Path 7083" d="M.047-2.08H.309l.221.556L.718-2.08H.98l-.345.9a.438.438,0,0,1-.121.191.285.285,0,0,1-.183.055H.178v-.172H.26a.17.17,0,0,0,.1-.022.137.137,0,0,0,.048-.075l.008-.023Z" transform="translate(-0.047 2.08)" fill="#06425c"/>
      </g>
      <g id="Group_7194" data-name="Group 7194" transform="translate(9.758 29.402)">
        <path id="Path_7084" data-name="Path 7084" d="M.813-1.879H.372l-.07.2H.019L.424-2.772H.76L1.166-1.68H.883Zm-.37-.2h.3L.593-2.516Z" transform="translate(-0.019 2.772)" fill="#06425c"/>
      </g>
      <g id="Group_7195" data-name="Group 7195" transform="translate(10.98 29.657)">
        <path id="Path_7085" data-name="Path 7085" d="M.788-1.428a.36.36,0,0,1-.119.105.328.328,0,0,1-.152.033A.308.308,0,0,1,.27-1.407a.457.457,0,0,1-.1-.3.454.454,0,0,1,.1-.3.308.308,0,0,1,.248-.118.323.323,0,0,1,.152.034.351.351,0,0,1,.119.105v-.121h.264v.737a.372.372,0,0,1-.125.3.552.552,0,0,1-.363.1A.929.929,0,0,1,.417-.977a.952.952,0,0,1-.145-.036v-.2a.656.656,0,0,0,.135.059.476.476,0,0,0,.133.019.269.269,0,0,0,.188-.056.231.231,0,0,0,.06-.177Zm-.173-.51a.151.151,0,0,0-.127.06.276.276,0,0,0-.045.17.282.282,0,0,0,.044.171.153.153,0,0,0,.129.058.15.15,0,0,0,.127-.059.276.276,0,0,0,.045-.169.276.276,0,0,0-.045-.17.15.15,0,0,0-.127-.06Z" transform="translate(-0.172 2.127)" fill="#06425c"/>
      </g>
      <g id="Group_7196" data-name="Group 7196" transform="translate(12.113 29.655)">
        <path id="Path_7086" data-name="Path 7086" d="M1.145-1.791v.5H.882v-.382A1.4,1.4,0,0,0,.877-1.82.157.157,0,0,0,.86-1.879a.107.107,0,0,0-.042-.039.123.123,0,0,0-.059-.014.152.152,0,0,0-.129.064.286.286,0,0,0-.047.175v.4H.321v-.82H.583v.12A.419.419,0,0,1,.708-2.1a.319.319,0,0,1,.147-.034.266.266,0,0,1,.216.088.382.382,0,0,1,.074.253Z" transform="translate(-0.321 2.131)" fill="#06425c"/>
      </g>
      <g id="Group_7197" data-name="Group 7197" transform="translate(13.181 29.355)">
        <path id="Path_7087" data-name="Path 7087" d="M.321-2.572H.583v.82H.321Zm0-.32H.583v.214H.321Z" transform="translate(-0.321 2.891)" fill="#06425c"/>
      </g>
      <g id="Group_7198" data-name="Group 7198" transform="translate(0 30.855)">
        <path id="Path_7088" data-name="Path 7088" d="M.71-2.891v.172H.565a.118.118,0,0,0-.078.02.092.092,0,0,0-.022.07v.057H.689v.187H.465v.632H.2v-.632H.072v-.187H.2v-.057a.248.248,0,0,1,.075-.2.349.349,0,0,1,.232-.064Z" transform="translate(-0.072 2.891)" fill="#06425c"/>
      </g>
      <g id="Group_7199" data-name="Group 7199" transform="translate(0.751 31.154)">
        <path id="Path_7089" data-name="Path 7089" d="M.93-1.888a.363.363,0,0,0-.07-.023A.287.287,0,0,0,.793-1.92a.191.191,0,0,0-.156.065.278.278,0,0,0-.054.185v.378H.321v-.82H.583v.135A.333.333,0,0,1,.7-2.094a.313.313,0,0,1,.157-.038l.028,0,.045,0Z" transform="translate(-0.321 2.131)" fill="#06425c"/>
      </g>
      <g id="Group_7200" data-name="Group 7200" transform="translate(1.429 31.154)">
        <path id="Path_7090" data-name="Path 7090" d="M.616-1.944a.155.155,0,0,0-.133.063A.3.3,0,0,0,.436-1.7a.3.3,0,0,0,.046.181.155.155,0,0,0,.133.062A.152.152,0,0,0,.746-1.52.3.3,0,0,0,.792-1.7a.3.3,0,0,0-.046-.181A.151.151,0,0,0,.616-1.944Zm0-.187a.458.458,0,0,1,.331.115.418.418,0,0,1,.119.316.419.419,0,0,1-.119.316.459.459,0,0,1-.331.114.463.463,0,0,1-.332-.114A.416.416,0,0,1,.163-1.7a.415.415,0,0,1,.12-.316A.461.461,0,0,1,.616-2.131Z" transform="translate(-0.163 2.131)" fill="#06425c"/>
      </g>
      <g id="Group_7201" data-name="Group 7201" transform="translate(2.52 31.154)">
        <path id="Path_7091" data-name="Path 7091" d="M1.078-1.975A.355.355,0,0,1,1.2-2.091a.293.293,0,0,1,.151-.04.265.265,0,0,1,.215.088.379.379,0,0,1,.075.253v.5H1.373v-.447c0-.007,0-.017,0-.03a.233.233,0,0,0-.026-.125.09.09,0,0,0-.082-.039.131.131,0,0,0-.116.062.321.321,0,0,0-.042.177v.4H.845v-.428a.407.407,0,0,0-.023-.175.09.09,0,0,0-.084-.039.132.132,0,0,0-.116.062.316.316,0,0,0-.041.177v.4H.316v-.82H.58v.12a.341.341,0,0,1,.111-.1.278.278,0,0,1,.138-.035A.279.279,0,0,1,.98-2.09a.258.258,0,0,1,.1.115Z" transform="translate(-0.316 2.131)" fill="#06425c"/>
      </g>
      <g id="Group_7202" data-name="Group 7202" transform="translate(4.502 30.942)">
        <path id="Path_7092" data-name="Path 7092" d="M.444-2.67v.233h.27v.187H.444V-1.9a.1.1,0,0,0,.023.077.141.141,0,0,0,.09.02H.691v.187H.466a.308.308,0,0,1-.221-.064A.306.306,0,0,1,.181-1.9V-2.25H.051v-.187h.13V-2.67Z" transform="translate(-0.051 2.67)" fill="#06425c"/>
      </g>
      <g id="Group_7203" data-name="Group 7203" transform="translate(5.326 30.855)">
        <path id="Path_7093" data-name="Path 7093" d="M1.145-2.251v.5H.882v-.381A1.423,1.423,0,0,0,.877-2.28.157.157,0,0,0,.86-2.34a.107.107,0,0,0-.042-.039.123.123,0,0,0-.059-.014A.152.152,0,0,0,.63-2.33a.286.286,0,0,0-.047.175v.4H.321V-2.891H.583v.439a.419.419,0,0,1,.126-.105.319.319,0,0,1,.147-.034.266.266,0,0,1,.216.088.382.382,0,0,1,.074.253Z" transform="translate(-0.321 2.891)" fill="#06425c"/>
      </g>
      <g id="Group_7204" data-name="Group 7204" transform="translate(6.332 31.154)">
        <path id="Path_7094" data-name="Path 7094" d="M1.044-1.7v.075H.431A.2.2,0,0,0,.5-1.49a.248.248,0,0,0,.16.046.618.618,0,0,0,.169-.024.9.9,0,0,0,.178-.074v.2a1.106,1.106,0,0,1-.186.053.966.966,0,0,1-.186.018.5.5,0,0,1-.347-.113A.409.409,0,0,1,.163-1.7a.413.413,0,0,1,.121-.315.464.464,0,0,1,.333-.115.418.418,0,0,1,.31.117.42.42,0,0,1,.116.31Zm-.27-.087a.166.166,0,0,0-.044-.12.15.15,0,0,0-.114-.046.179.179,0,0,0-.124.043.2.2,0,0,0-.059.123Z" transform="translate(-0.163 2.131)" fill="#06425c"/>
      </g>
      <g id="Group_7205" data-name="Group 7205" transform="translate(7.946 30.901)">
        <path id="Path_7095" data-name="Path 7095" d="M.35-2.772H.665l.4.75v-.75H1.33V-1.68H1.015l-.4-.75v.75H.35Z" transform="translate(-0.35 2.772)" fill="#06425c"/>
      </g>
      <g id="Group_7206" data-name="Group 7206" transform="translate(9.128 31.154)">
        <path id="Path_7096" data-name="Path 7096" d="M.616-1.944a.155.155,0,0,0-.133.063A.3.3,0,0,0,.436-1.7a.3.3,0,0,0,.046.181.155.155,0,0,0,.133.062A.152.152,0,0,0,.746-1.52.3.3,0,0,0,.792-1.7a.3.3,0,0,0-.046-.181A.151.151,0,0,0,.616-1.944Zm0-.187a.458.458,0,0,1,.331.115.418.418,0,0,1,.119.316.419.419,0,0,1-.119.316.459.459,0,0,1-.331.114.463.463,0,0,1-.332-.114A.416.416,0,0,1,.163-1.7a.415.415,0,0,1,.12-.316A.461.461,0,0,1,.616-2.131Z" transform="translate(-0.163 2.131)" fill="#06425c"/>
      </g>
      <g id="Group_7207" data-name="Group 7207" transform="translate(10.212 31.174)">
        <path id="Path_7097" data-name="Path 7097" d="M.3-1.58v-.5H.561V-2c0,.045,0,.1,0,.167s0,.112,0,.134a1.407,1.407,0,0,0,.005.143.165.165,0,0,0,.018.063.115.115,0,0,0,.043.04.126.126,0,0,0,.059.013A.152.152,0,0,0,.813-1.5.287.287,0,0,0,.86-1.675v-.4h.262v.82H.86v-.119a.412.412,0,0,1-.126.106.322.322,0,0,1-.147.033.268.268,0,0,1-.216-.087A.379.379,0,0,1,.3-1.58Z" transform="translate(-0.297 2.08)" fill="#06425c"/>
      </g>
      <g id="Group_7208" data-name="Group 7208" transform="translate(11.29 31.154)">
        <path id="Path_7098" data-name="Path 7098" d="M1.145-1.791v.5H.882v-.382A1.4,1.4,0,0,0,.877-1.82.157.157,0,0,0,.86-1.879a.107.107,0,0,0-.042-.039.123.123,0,0,0-.059-.014.152.152,0,0,0-.129.064.286.286,0,0,0-.047.175v.4H.321v-.82H.583v.12A.419.419,0,0,1,.708-2.1a.319.319,0,0,1,.147-.034.266.266,0,0,1,.216.088.382.382,0,0,1,.074.253Z" transform="translate(-0.321 2.131)" fill="#06425c"/>
      </g>
      <g id="Group_7209" data-name="Group 7209" transform="translate(12.892 30.901)">
        <path id="Path_7099" data-name="Path 7099" d="M.35-2.772H.818a.487.487,0,0,1,.32.093.322.322,0,0,1,.112.264.324.324,0,0,1-.112.264.487.487,0,0,1-.32.093H.632v.379H.35Zm.281.2v.305H.788A.182.182,0,0,0,.915-2.3.143.143,0,0,0,.96-2.416a.142.142,0,0,0-.045-.113.185.185,0,0,0-.126-.039Z" transform="translate(-0.35 2.772)" fill="#06425c"/>
      </g>
      <g id="Group_7210" data-name="Group 7210" transform="translate(13.98 31.154)">
        <path id="Path_7100" data-name="Path 7100" d="M.93-1.888a.363.363,0,0,0-.07-.023A.287.287,0,0,0,.793-1.92a.191.191,0,0,0-.156.065.278.278,0,0,0-.054.185v.378H.321v-.82H.583v.135A.333.333,0,0,1,.7-2.094a.313.313,0,0,1,.157-.038l.028,0,.045,0Z" transform="translate(-0.321 2.131)" fill="#06425c"/>
      </g>
      <g id="Group_7211" data-name="Group 7211" transform="translate(14.658 31.154)">
        <path id="Path_7101" data-name="Path 7101" d="M.616-1.944a.155.155,0,0,0-.133.063A.3.3,0,0,0,.436-1.7a.3.3,0,0,0,.046.181.155.155,0,0,0,.133.062A.152.152,0,0,0,.746-1.52.3.3,0,0,0,.792-1.7a.3.3,0,0,0-.046-.181A.151.151,0,0,0,.616-1.944Zm0-.187a.458.458,0,0,1,.331.115.418.418,0,0,1,.119.316.419.419,0,0,1-.119.316.459.459,0,0,1-.331.114.463.463,0,0,1-.332-.114A.416.416,0,0,1,.163-1.7a.415.415,0,0,1,.12-.316A.461.461,0,0,1,.616-2.131Z" transform="translate(-0.163 2.131)" fill="#06425c"/>
      </g>
      <g id="Group_7212" data-name="Group 7212" transform="translate(15.575 30.855)">
        <path id="Path_7102" data-name="Path 7102" d="M.049-2.572H.311v.8a.361.361,0,0,1-.08.252A.294.294,0,0,1,0-1.428h-.13V-1.6h.046a.128.128,0,0,0,.1-.033.219.219,0,0,0,.028-.133Zm0-.32H.311v.214H.049Z" transform="translate(0.127 2.891)" fill="#06425c"/>
      </g>
      <g id="Group_7213" data-name="Group 7213" transform="translate(16.204 31.154)">
        <path id="Path_7103" data-name="Path 7103" d="M1.044-1.7v.075H.431A.2.2,0,0,0,.5-1.49a.248.248,0,0,0,.16.046.618.618,0,0,0,.169-.024.9.9,0,0,0,.178-.074v.2a1.106,1.106,0,0,1-.186.053.966.966,0,0,1-.186.018.5.5,0,0,1-.347-.113A.409.409,0,0,1,.163-1.7a.413.413,0,0,1,.121-.315.464.464,0,0,1,.333-.115.418.418,0,0,1,.31.117.42.42,0,0,1,.116.31Zm-.27-.087a.166.166,0,0,0-.044-.12.15.15,0,0,0-.114-.046.179.179,0,0,0-.124.043.2.2,0,0,0-.059.123Z" transform="translate(-0.163 2.131)" fill="#06425c"/>
      </g>
      <g id="Group_7214" data-name="Group 7214" transform="translate(17.222 31.154)">
        <path id="Path_7104" data-name="Path 7104" d="M.888-2.085v.213a.408.408,0,0,0-.107-.054.356.356,0,0,0-.111-.018A.227.227,0,0,0,.5-1.879.248.248,0,0,0,.437-1.7.249.249,0,0,0,.5-1.521a.228.228,0,0,0,.172.064.383.383,0,0,0,.116-.018.344.344,0,0,0,.1-.054v.214a.71.71,0,0,1-.125.033.7.7,0,0,1-.127.012.5.5,0,0,1-.348-.114A.406.406,0,0,1,.163-1.7a.407.407,0,0,1,.125-.317.5.5,0,0,1,.348-.114.7.7,0,0,1,.127.012.7.7,0,0,1,.125.034Z" transform="translate(-0.163 2.131)" fill="#06425c"/>
      </g>
      <g id="Group_7215" data-name="Group 7215" transform="translate(18.067 30.942)">
        <path id="Path_7105" data-name="Path 7105" d="M.444-2.67v.233h.27v.187H.444V-1.9a.1.1,0,0,0,.023.077.141.141,0,0,0,.09.02H.691v.187H.466a.308.308,0,0,1-.221-.064A.306.306,0,0,1,.181-1.9V-2.25H.051v-.187h.13V-2.67Z" transform="translate(-0.051 2.67)" fill="#06425c"/>
      </g>
    </g>
  </g>
</svg>
