<svg xmlns="http://www.w3.org/2000/svg" width="80" height="80" viewBox="0 0 80 80">
  <g id="Group_1" data-name="Group 1" transform="translate(-466 -218)">
    <g id="Path_1" data-name="Path 1" transform="translate(466 218)" fill="#f6f6f6">
      <path d="M 40 79.5 C 34.66731262207031 79.5 29.49441146850586 78.45570373535156 24.62496757507324 76.39610290527344 C 19.92140007019043 74.40665435791016 15.69705581665039 71.55848693847656 12.0692777633667 67.93072509765625 C 8.441511154174805 64.30294799804688 5.593344211578369 60.0786018371582 3.603899955749512 55.37503433227539 C 1.544299960136414 50.50558853149414 0.5 45.33268737792969 0.5 40 C 0.5 34.66731262207031 1.544299960136414 29.49441146850586 3.603899955749512 24.62496757507324 C 5.593344211578369 19.92140007019043 8.441511154174805 15.69705581665039 12.0692777633667 12.0692777633667 C 15.69705581665039 8.441511154174805 19.92140007019043 5.593344211578369 24.62496757507324 3.603899955749512 C 29.49441146850586 1.544299960136414 34.66731262207031 0.5 40 0.5 C 45.33268737792969 0.5 50.50558853149414 1.544299960136414 55.37503433227539 3.603899955749512 C 60.0786018371582 5.593344211578369 64.30294799804688 8.441511154174805 67.93072509765625 12.0692777633667 C 71.55848693847656 15.69705581665039 74.40665435791016 19.92140007019043 76.39610290527344 24.62496757507324 C 78.45570373535156 29.49441146850586 79.5 34.66731262207031 79.5 40 C 79.5 45.33268737792969 78.45570373535156 50.50558853149414 76.39610290527344 55.37503433227539 C 74.40665435791016 60.0786018371582 71.55848693847656 64.30294799804688 67.93072509765625 67.93072509765625 C 64.30294799804688 71.55848693847656 60.0786018371582 74.40665435791016 55.37503433227539 76.39610290527344 C 50.50558853149414 78.45570373535156 45.33268737792969 79.5 40 79.5 Z" stroke="none"/>
      <path d="M 40 1 C 34.73458862304688 1 29.62722396850586 2.031013488769531 24.81974411010742 4.064399719238281 C 20.17577743530273 6.028633117675781 16.00485610961914 8.8408203125 12.42283630371094 12.42283630371094 C 8.8408203125 16.00485610961914 6.028633117675781 20.17577743530273 4.064399719238281 24.81974411010742 C 2.031013488769531 29.62722396850586 1 34.73458862304688 1 40 C 1 45.26541137695312 2.031013488769531 50.37277984619141 4.064399719238281 55.18025588989258 C 6.028633117675781 59.82422256469727 8.8408203125 63.99514389038086 12.42283630371094 67.57716369628906 C 16.00485610961914 71.1591796875 20.17577743530273 73.97136688232422 24.81974411010742 75.93560028076172 C 29.62722396850586 77.96898651123047 34.73458862304688 79 40 79 C 45.26541137695312 79 50.37277984619141 77.96898651123047 55.18025588989258 75.93560028076172 C 59.82422256469727 73.97136688232422 63.99514389038086 71.1591796875 67.57716369628906 67.57716369628906 C 71.1591796875 63.99514389038086 73.97136688232422 59.82422256469727 75.93560028076172 55.18025588989258 C 77.96898651123047 50.37277984619141 79 45.26541137695312 79 40 C 79 34.73458862304688 77.96898651123047 29.62722396850586 75.93560028076172 24.81974411010742 C 73.97136688232422 20.17577743530273 71.1591796875 16.00485610961914 67.57716369628906 12.42283630371094 C 63.99514389038086 8.8408203125 59.82422256469727 6.028633117675781 55.18025588989258 4.064399719238281 C 50.37277984619141 2.031013488769531 45.26541137695312 1 40 1 M 40 0 C 62.09138870239258 0 80 17.90861129760742 80 40 C 80 62.09138870239258 62.09138870239258 80 40 80 C 17.90861129760742 80 0 62.09138870239258 0 40 C 0 17.90861129760742 17.90861129760742 0 40 0 Z" stroke="none" fill="#e2e1e1"/>
    </g>
    <text id="PACE_Application" data-name="PACE
Application" transform="translate(507 256)" fill="#dbd7d7" font-size="12" font-family="SegoeUI, Segoe UI"><tspan x="-13.453" y="0">PACE</tspan><tspan x="-30.053" y="16">Application</tspan></text>
  </g>
</svg>
