<svg xmlns="http://www.w3.org/2000/svg" xmlns:xlink="http://www.w3.org/1999/xlink" width="18" height="24" viewBox="0 0 18 24">
  <defs>
    <clipPath id="clip-path">
      <rect id="Rectangle_1830" data-name="Rectangle 1830" width="18" height="24" transform="translate(1028 958.204)" fill="#06425c" stroke="#707070" stroke-width="1"/>
    </clipPath>
  </defs>
  <g id="Mask_Group_6" data-name="Mask Group 6" transform="translate(-1028 -958.204)" clip-path="url(#clip-path)">
    <g id="lock" transform="translate(1025.625 959.238)">
      <path id="Path_7106" data-name="Path 7106" d="M7.913,8.98V5.2A5.069,5.069,0,0,1,13.205.387,5.071,5.071,0,0,1,18.5,5.2V8.98h1.074a1.864,1.864,0,0,1,1.813,1.908v9.551a1.862,1.862,0,0,1-1.813,1.908H6.84a1.864,1.864,0,0,1-1.813-1.908V10.888A1.862,1.862,0,0,1,6.84,8.98Zm-.962,1.909v9.548H19.46V10.889ZM16.573,8.98V5.2a3.167,3.167,0,0,0-3.368-2.9A3.165,3.165,0,0,0,9.838,5.2V8.98ZM12.243,14.5a.962.962,0,0,1,1.924,0v2.865a.962.962,0,0,1-1.924,0Z" transform="translate(-1.779 -0.387)" fill="#06425c"/>
      <g id="Group_7216" data-name="Group 7216" transform="translate(0 26.592)">
        <path id="Path_7107" data-name="Path 7107" d="M1.588.241a1.159,1.159,0,0,1-.26.1,1.2,1.2,0,0,1-.282.033A.968.968,0,0,1,.352.128.866.866,0,0,1,.1-.531a.867.867,0,0,1,.256-.66.967.967,0,0,1,.695-.244,1.2,1.2,0,0,1,.282.033,1.145,1.145,0,0,1,.26.1v.36A1,1,0,0,0,1.34-1.07a.827.827,0,0,0-.257-.04A.488.488,0,0,0,.7-.955a.609.609,0,0,0-.139.424A.609.609,0,0,0,.7-.108a.488.488,0,0,0,.381.153A.822.822,0,0,0,1.34.006a.987.987,0,0,0,.248-.125Z" transform="translate(-0.096 1.435)" fill="#06425c"/>
      </g>
      <g id="Group_7217" data-name="Group 7217" transform="translate(6.118 26.688)">
        <path id="Path_7108" data-name="Path 7108" d="M.655-1.357v.371h.434v.3H.655v.554a.161.161,0,0,0,.036.123A.231.231,0,0,0,.836.02h.216v.3H.692a.491.491,0,0,1-.353-.1.484.484,0,0,1-.1-.35V-.688H.025v-.3H.235v-.371Z" transform="translate(-0.025 1.357)" fill="#06425c"/>
      </g>
      <g id="Group_7218" data-name="Group 7218" transform="translate(8.976 26.551)">
        <path id="Path_7109" data-name="Path 7109" d="M1.075-.77v-.7H1.5V.345H1.075V.156A.565.565,0,0,1,.884.325.521.521,0,0,1,.642.379a.493.493,0,0,1-.4-.192A.757.757,0,0,1,.087-.307.757.757,0,0,1,.243-.8a.493.493,0,0,1,.4-.192.519.519,0,0,1,.241.054.576.576,0,0,1,.192.168ZM.8.075A.239.239,0,0,0,1-.022a.482.482,0,0,0,.071-.285A.482.482,0,0,0,1-.591.239.239,0,0,0,.8-.689a.237.237,0,0,0-.2.1.481.481,0,0,0-.071.285.48.48,0,0,0,.071.285A.237.237,0,0,0,.8.075Z" transform="translate(-0.087 1.469)" fill="#06425c"/>
      </g>
      <g id="Group_7219" data-name="Group 7219" transform="translate(11.629 26.551)">
        <path id="Path_7110" data-name="Path 7110" d="M.862.075a.238.238,0,0,0,.206-.1.478.478,0,0,0,.072-.285.478.478,0,0,0-.072-.285.238.238,0,0,0-.206-.1.242.242,0,0,0-.207.1.475.475,0,0,0-.072.284.474.474,0,0,0,.072.284.241.241,0,0,0,.207.1ZM.583-.77A.579.579,0,0,1,.775-.938a.525.525,0,0,1,.243-.054.492.492,0,0,1,.4.192.758.758,0,0,1,.156.494.758.758,0,0,1-.156.494.492.492,0,0,1-.4.192A.525.525,0,0,1,.775.324.576.576,0,0,1,.583.156V.345H.163V-1.469h.42Z" transform="translate(-0.163 1.469)" fill="#06425c"/>
      </g>
      <g id="Group_7220" data-name="Group 7220" transform="translate(15.566 26.624)">
        <path id="Path_7111" data-name="Path 7111" d="M.009-1.409H1.625v.339H1.044v1.4H.592v-1.4H.009Z" transform="translate(-0.009 1.409)" fill="#06425c"/>
      </g>
      <g id="Group_7221" data-name="Group 7221" transform="translate(25.195 26.624)">
        <path id="Path_7112" data-name="Path 7112" d="M.178-1.409H.753l.4.931.4-.931h.574V.331H1.7V-.942L1.3,0H1.01l-.4-.938V.331H.178Z" transform="translate(-0.178 1.409)" fill="#06425c"/>
      </g>
    </g>
  </g>
</svg>
