<svg xmlns="http://www.w3.org/2000/svg" width="72" height="72" viewBox="0 0 72 72">
  <g id="action-tracker-72" transform="translate(0 -1)">
    <g id="Group_5787" data-name="Group 5787" transform="translate(0 1)">
      <g id="Group_5778" data-name="Group 5778">
        <g id="Group_5762" data-name="Group 5762">
          <g id="Group_5739" data-name="Group 5739">
            <rect id="Rectangle_1883" data-name="Rectangle 1883" width="72" height="72" fill="none"/>
          </g>
        </g>
      </g>
    </g>
    <g id="Group_5788" data-name="Group 5788" transform="translate(5.23 2.05)">
      <path id="Path_5172" data-name="Path 5172" d="M23.364,67.661l3.328-4.586A24.534,24.534,0,0,1,39.677,20.9L42.842,15A30,30,0,0,0,13.3,45.057,30.322,30.322,0,0,0,23.364,67.661Z" transform="translate(-13.3 -9.643)" fill="#f28705"/>
      <path id="Path_5173" data-name="Path 5173" d="M66.461,23.4l-3.328,4.464A24.255,24.255,0,0,1,47.551,70.716a23.878,23.878,0,0,1-6.006-.73L37,74.287a30.427,30.427,0,0,0,10.551,1.948A29.811,29.811,0,0,0,66.461,23.4Z" transform="translate(-14.964 -10.75)" fill="#f28705"/>
      <path id="Path_5174" data-name="Path 5174" d="M64.222,40.112a.835.835,0,0,0,.173-.981,1.04,1.04,0,0,0-.863-.572h-.086l-16.916.736L59.648,22.948l3.625-4.5,6.9-8.582a.824.824,0,0,0,0-1.062A.918.918,0,0,0,69.4,8.4a.329.329,0,0,0-.259.082l-18.21,5.639-.432.163a.873.873,0,0,0-.518.409l-2.762,4.74L31.253,47.14a.845.845,0,0,0,0,.9.919.919,0,0,0,.777.409h.086l12.514-.9L31.944,64.059l-3.452,4.5-4.919,6.375a.865.865,0,0,0,.173,1.226,1.493,1.493,0,0,0,.518.245h.086a1.187,1.187,0,0,0,.69-.245l6.387-5.8,4.488-4.168Z" transform="translate(-15.201 -8.4)" fill="#f28705"/>
    </g>
  </g>
</svg>
