<svg xmlns="http://www.w3.org/2000/svg" width="72" height="72" viewBox="0 0 72 72">
  <g id="assessment-72" transform="translate(-360 -30)">
    <g id="Group_6140" data-name="Group 6140" transform="translate(360 30)">
      <rect id="Rectangle_1908" data-name="Rectangle 1908" width="72" height="72" fill="none"/>
      <g id="Group_6139" data-name="Group 6139" transform="translate(5 2)">
        <g id="Group_5879" data-name="Group 5879" transform="translate(0)">
          <path id="assessment-7" d="M122.854,94.9a2.433,2.433,0,0,1-2.437-2.429V69.4a.608.608,0,0,0-.609-.607H75.417a.608.608,0,0,0-.609.607v57.071a.608.608,0,0,0,.609.607h16.9a2.429,2.429,0,1,1,0,4.857H72.371a2.433,2.433,0,0,1-2.437-2.429V66.366a2.433,2.433,0,0,1,2.437-2.429h50.483a2.433,2.433,0,0,1,2.437,2.429V92.473a2.433,2.433,0,0,1-2.437,2.429ZM81.128,79.571h30.76a2.429,2.429,0,1,1,0,4.857H81.128a2.429,2.429,0,1,1,0-4.857Zm.381,15.634H92.547a2.429,2.429,0,1,1,0,4.857H81.509a2.429,2.429,0,1,1,0-4.857Zm0,15.634H92.547a2.429,2.429,0,1,1,0,4.857H81.509a2.429,2.429,0,1,1,0-4.857ZM99.553,95.205H102.9a2.429,2.429,0,1,1,0,4.857H99.553a2.429,2.429,0,1,1,0-4.857Z" transform="translate(-69.935 -63.937)" fill="#f28705"/>
          <g id="Outline" transform="translate(32.308 34.548)">
            <g id="Group_35" data-name="Group 35" transform="translate(0 0)">
              <rect id="Rectangle_17" data-name="Rectangle 17" width="3.873" height="3.873" transform="translate(13.556 23.239)" fill="#f28705"/>
              <rect id="Rectangle_18" data-name="Rectangle 18" width="3.873" height="9.683" transform="translate(13.556 9.683)" fill="#f28705"/>
              <path id="Path_2281" data-name="Path 2281" d="M29.54,4.317H22.606a4.957,4.957,0,0,0-9.355,0H6.317a2.906,2.906,0,0,0-.664.066A3.352,3.352,0,0,0,3.265,6.358,3.2,3.2,0,0,0,3,7.635V30.857a3.4,3.4,0,0,0,.265,1.294,3.515,3.515,0,0,0,.713,1.062,3.33,3.33,0,0,0,1.675.912,4.3,4.3,0,0,0,.663.05H29.54a3.327,3.327,0,0,0,3.317-3.317V7.635A3.327,3.327,0,0,0,29.54,4.317ZM17.929,3.9a1.244,1.244,0,1,1-1.244,1.244A1.253,1.253,0,0,1,17.929,3.9ZM29.54,30.857H6.317V7.635H29.54Z" transform="translate(-3 -1)" fill="#f28705"/>
            </g>
          </g>
        </g>
      </g>
    </g>
  </g>
</svg>
