<svg xmlns="http://www.w3.org/2000/svg" width="68" height="68" viewBox="0 0 68 68">
  <g id="compliance-72" transform="translate(-1160 -32)">
    <g id="Group_6372" data-name="Group 6372" transform="translate(1160 32)">
      <path id="Path_6563" data-name="Path 6563" d="M60.006,8.8a28.478,28.478,0,0,0-40.386,0,28.527,28.527,0,0,0-3.528,36.145L2.955,56.625c-.243.122-.365.365-.608.487A6.558,6.558,0,0,0,.4,61.737a6.63,6.63,0,0,0,11.313,4.746,2.655,2.655,0,0,0,.487-.609L23.878,52.609A28.519,28.519,0,0,0,60.006,8.8ZM39.935,53.34A24.34,24.34,0,1,1,64.264,29,24.328,24.328,0,0,1,39.935,53.34Z" transform="translate(-0.4 -0.4)" fill="#f28705"/>
      <path id="Path_6564" data-name="Path 6564" d="M31.03,27.085,24.348,20.4,20,24.857l11.03,11.03L47.257,19.554,42.909,15.1Z" transform="translate(6.824 4.757)" fill="#f28705"/>
    </g>
  </g>
</svg>
