<svg xmlns="http://www.w3.org/2000/svg" width="72" height="72" viewBox="0 0 72 72">
  <g id="control-tower-72" transform="translate(-411 -30)">
    <g id="Group_5864" data-name="Group 5864" transform="translate(421 32)">
      <g id="control-tower-svgrepo-com" transform="translate(0)">
        <g id="Group_5507" data-name="Group 5507" transform="translate(3.522 7.152)">
          <path id="Path_5211" data-name="Path 5211" d="M174.725,314.849h-3.074a2.005,2.005,0,0,1,0-3.978h1.322v-4.362H154.236v4.362h11.032a2.005,2.005,0,0,1,0,3.978H152.485a1.882,1.882,0,0,1-1.751-1.989v-8.34a1.882,1.882,0,0,1,1.751-1.989h22.24a1.882,1.882,0,0,1,1.751,1.989v8.34A1.882,1.882,0,0,1,174.725,314.849Z" transform="translate(-141.527 -267.665)" fill="#f28705"/>
          <path id="Path_5212" data-name="Path 5212" d="M79.554,65.587a2.18,2.18,0,0,1,.089-2L86.207,52.4a1.753,1.753,0,0,1,1.5-.9h19.6a2,2,0,0,1,0,3.978H88.676l-5.463,9.309,6.1,1.682h24.242l6.1-1.682-5.993-10.212a2.127,2.127,0,0,1,.521-2.753,1.685,1.685,0,0,1,2.477.579l6.564,11.184a2.18,2.18,0,0,1,.089,2C115.92,70.031,86.941,70.031,79.554,65.587Z" transform="translate(-79.352 -51.497)" fill="#f28705"/>
        </g>
        <g id="Group_5508" data-name="Group 5508">
          <path id="Path_5214" data-name="Path 5214" d="M93.142,196.684H62.148a1.784,1.784,0,0,1-1.6-1.073L52.247,177.9a2.175,2.175,0,0,1,.059-1.949,1.769,1.769,0,0,1,1.536-.956h47.6a1.769,1.769,0,0,1,1.536.956,2.175,2.175,0,0,1,.059,1.949l-8.306,17.714A1.785,1.785,0,0,1,93.142,196.684Zm-29.9-3.978H92.049l6.44-13.736H56.8Z" transform="translate(-52.045 -152.218)" fill="#f28705"/>
          <path id="Path_5215" data-name="Path 5215" d="M151.806,196.685a1.835,1.835,0,0,1-1.641-1.073L141.631,177.9a2.065,2.065,0,0,1,.789-2.681,1.785,1.785,0,0,1,2.49.85l8.535,17.714a2.065,2.065,0,0,1-.789,2.682A1.737,1.737,0,0,1,151.806,196.685Z" transform="translate(-130.298 -152.219)" fill="#f28705"/>
          <path id="Path_5216" data-name="Path 5216" d="M277.6,196.683a1.732,1.732,0,0,1-.849-.224,2.066,2.066,0,0,1-.789-2.682l8.535-17.714a1.785,1.785,0,0,1,2.49-.85,2.066,2.066,0,0,1,.789,2.681l-8.535,17.714A1.834,1.834,0,0,1,277.6,196.683Z" transform="translate(-247.912 -152.217)" fill="#f28705"/>
          <path id="Path_5217" data-name="Path 5217" d="M309.332,383.332a1.922,1.922,0,0,1-1.847-1.989V364.568a1.852,1.852,0,1,1,3.694,0v16.775A1.922,1.922,0,0,1,309.332,383.332Z" transform="translate(-275.49 -315.332)" fill="#f28705"/>
          <path id="Path_5218" data-name="Path 5218" d="M177.718,383.332a1.922,1.922,0,0,1-1.847-1.989V364.568a1.852,1.852,0,1,1,3.694,0v16.775A1.922,1.922,0,0,1,177.718,383.332Z" transform="translate(-160.361 -315.332)" fill="#f28705"/>
          <path id="Path_5219" data-name="Path 5219" d="M243.525,10.733a1.922,1.922,0,0,1-1.847-1.989V1.989a1.852,1.852,0,1,1,3.694,0V8.744A1.922,1.922,0,0,1,243.525,10.733Z" transform="translate(-217.925)" fill="#f28705"/>
        </g>
      </g>
    </g>
    <rect id="Rectangle_1908" data-name="Rectangle 1908" width="72" height="72" transform="translate(411 30)" fill="none"/>
  </g>
</svg>
