<svg xmlns="http://www.w3.org/2000/svg" width="72" height="72" viewBox="0 0 72 72">
  <g id="HSE_-management-72" data-name="HSE -management-72" transform="translate(-635 -30)">
    <g id="HSE-management-24" transform="translate(479 -365)">
      <g id="health-book-svgrepo-com" transform="translate(156 395)">
        <path id="Path_6493" data-name="Path 6493" d="M0,0H72V72H0Z" fill="none"/>
      </g>
    </g>
    <path id="Path_6562" data-name="Path 6562" d="M60.814,2a3.4,3.4,0,0,1,3.4,3.4V66.6a3.4,3.4,0,0,1-3.4,3.4H13.2a3.4,3.4,0,0,1-3.4-3.4V59.8H3V53H9.8V46.2H3V39.4H9.8V32.6H3V25.8H9.8V19H3V12.2H9.8V5.4A3.4,3.4,0,0,1,13.2,2Zm-3.4,6.8H16.6V63.2h40.81Zm-17,13.6V32.6h10.2v6.8H40.405l0,10.2h-6.8l0-10.2H23.4V32.6h10.2V22.4Z" transform="translate(637 30)" fill="#f28705"/>
  </g>
</svg>
