<svg xmlns="http://www.w3.org/2000/svg" width="72" height="72" viewBox="0 0 72 72">
  <g id="icare-72" transform="translate(-847 -30)">
    <g id="Group_6367" data-name="Group 6367" transform="translate(2)">
      <g id="HSE-management-24" transform="translate(689 -365)">
        <g id="health-book-svgrepo-com" transform="translate(156 395)">
          <path id="Path_6493" data-name="Path 6493" d="M0,0H72V72H0Z" fill="none"/>
        </g>
      </g>
      <g id="iCare_observation-24" data-name="iCare/observation-24" transform="translate(721 -18.991)">
        <g id="Group_5761" data-name="Group 5761" transform="translate(126 50.991)">
          <g id="Group_5737" data-name="Group 5737" transform="translate(0 0)">
            <g id="Rectangle_1883" data-name="Rectangle 1883" transform="translate(0 0.142)" fill="none" stroke="#000" stroke-width="0.5" opacity="0">
              <rect width="69" height="68.858" stroke="none"/>
              <rect x="0.25" y="0.25" width="68.5" height="68.358" fill="none"/>
            </g>
            <g id="Group_5738" data-name="Group 5738" transform="translate(0)">
              <path id="Path_5162" data-name="Path 5162" d="M28.913,44.853a2.573,2.573,0,0,0,0,3.8c2.832,2.758,8.72,7.453,15.5,7.453s12.67-4.7,15.5-7.453a2.573,2.573,0,0,0,0-3.8C57.085,42.1,51.2,37.4,44.415,37.4S31.746,42.17,28.913,44.853Zm21.911,1.938a6.409,6.409,0,1,1-6.409-6.409A6.409,6.409,0,0,1,50.825,46.791Z" transform="translate(-10.379 -12.825)" fill="#f28705"/>
              <path id="Path_5163" data-name="Path 5163" d="M47.532,44.939a1.831,1.831,0,0,1,.373,1.118,1.924,1.924,0,0,1-1.938,1.938,1.831,1.831,0,0,1-1.118-.373A5.754,5.754,0,0,0,44.7,48.74a3.95,3.95,0,1,0,3.95-3.95A1.954,1.954,0,0,0,47.532,44.939Z" transform="translate(-14.614 -14.705)" fill="#f28705"/>
              <path id="Path_5164" data-name="Path 5164" d="M45.009,9.282,46.5,7.792V23.07a1.565,1.565,0,1,0,3.13,0V7.792L51.12,9.282a1.517,1.517,0,0,0,1.118.447,1.643,1.643,0,0,0,1.118-.447,1.529,1.529,0,0,0,0-2.161L49.182,2.947a1.529,1.529,0,0,0-2.161,0L42.847,7.121a1.529,1.529,0,0,0,0,2.161A1.412,1.412,0,0,0,45.009,9.282Z" transform="translate(-14.03 -2.5)" fill="#f28705"/>
              <path id="Path_5165" data-name="Path 5165" d="M7.792,49.529h7.975a1.565,1.565,0,0,0,0-3.13H7.792l1.491-1.491a1.528,1.528,0,1,0-2.161-2.161L2.947,46.921a1.621,1.621,0,0,0,0,2.236l4.174,4.1a1.517,1.517,0,0,0,1.118.447,1.643,1.643,0,0,0,1.118-.447,1.529,1.529,0,0,0,0-2.161Z" transform="translate(-2.5 -14.073)" fill="#f28705"/>
              <path id="Path_5166" data-name="Path 5166" d="M51.12,83.153l-1.491,1.491V69.365a1.565,1.565,0,1,0-3.13,0V84.643l-1.491-1.491a1.528,1.528,0,0,0-2.161,2.161l4.174,4.174a1.517,1.517,0,0,0,1.118.447,1.643,1.643,0,0,0,1.118-.447l4.174-4.174a1.529,1.529,0,0,0,0-2.161A1.576,1.576,0,0,0,51.12,83.153Z" transform="translate(-14.032 -22.008)" fill="#f28705"/>
              <path id="Path_5167" data-name="Path 5167" d="M17.389,24.718a1.528,1.528,0,0,0,1.565-1.565V20.992l9.689,9.689a1.555,1.555,0,1,0,2.236-2.161L21.19,18.83h2.161a1.565,1.565,0,0,0,0-3.13H17.463A1.528,1.528,0,0,0,15.9,17.265v5.888A1.468,1.468,0,0,0,17.389,24.718Z" transform="translate(-5.911 -5.862)" fill="#f28705"/>
              <path id="Path_5168" data-name="Path 5168" d="M77.362,70.009A1.528,1.528,0,0,0,75.8,71.575v2.161l-9.689-9.689a1.528,1.528,0,0,0-2.161,2.161L73.636,75.9H71.475a1.565,1.565,0,0,0,0,3.13h5.888a1.528,1.528,0,0,0,1.565-1.565V71.575A1.574,1.574,0,0,0,77.362,70.009Z" transform="translate(-20.771 -20.938)" fill="#f28705"/>
              <path id="Path_5169" data-name="Path 5169" d="M64.991,31.327a1.643,1.643,0,0,0,1.118-.447L75.8,21.192v2.161a1.565,1.565,0,1,0,3.13,0V17.465A1.528,1.528,0,0,0,77.362,15.9H71.475a1.565,1.565,0,1,0,0,3.13h2.161l-9.689,9.689a1.529,1.529,0,0,0,0,2.161A1.471,1.471,0,0,0,64.991,31.327Z" transform="translate(-20.771 -5.913)" fill="#f28705"/>
              <path id="Path_5170" data-name="Path 5170" d="M28.619,63.85,18.93,73.539V71.378a1.565,1.565,0,0,0-3.13,0v5.888a1.528,1.528,0,0,0,1.565,1.565h5.888a1.53,1.53,0,1,0-.075-3.056H21.017l9.689-9.689a1.529,1.529,0,0,0,0-2.161A1.383,1.383,0,0,0,28.619,63.85Z" transform="translate(-5.888 -20.89)" fill="#f28705"/>
              <path id="Path_5171" data-name="Path 5171" d="M91.984,47.021,87.81,42.847a1.528,1.528,0,0,0-2.161,2.161L87.14,46.5H79.165a1.565,1.565,0,1,0,0,3.13H87.14L85.649,51.12a1.555,1.555,0,0,0,2.236,2.161l4.174-4.174a1.517,1.517,0,0,0,.447-1.118A1.274,1.274,0,0,0,91.984,47.021Z" transform="translate(-24.363 -14.101)" fill="#f28705"/>
            </g>
          </g>
        </g>
      </g>
    </g>
  </g>
</svg>
