<svg xmlns="http://www.w3.org/2000/svg" width="72" height="72" viewBox="0 0 72 72">
  <g id="Incident-management-72" transform="translate(-235 -29)">
    <g id="Group_5787" data-name="Group 5787" transform="translate(235 29)">
      <g id="Group_5778" data-name="Group 5778">
        <g id="Group_5762" data-name="Group 5762">
          <g id="Group_5739" data-name="Group 5739">
            <rect id="Rectangle_1883" data-name="Rectangle 1883" width="72" height="72" fill="none"/>
          </g>
        </g>
      </g>
    </g>
    <path id="noun-hand-fracture-with-shield-2125628-FF9C34" d="M333.316,231.1c-9.868,2.731-20.613-5.876-25.724-15.1-5.11,9.2-15.834,17.829-25.724,15.1a39.557,39.557,0,0,0,7.246,41.23A40.036,40.036,0,0,0,307.592,284a39.836,39.836,0,0,0,28-31.262,39.516,39.516,0,0,0-2.28-21.64Zm-25.841-.946c3.55,0,6.415,3.283,6.415,7.342s-2.876,7.331-6.415,7.331-6.415-3.283-6.415-7.331S303.925,230.152,307.475,230.152Zm-5.228,33.554a8.615,8.615,0,0,1-1.283-.159l11.365-17.4h1.39Zm3.7-3.411a1.858,1.858,0,0,1-.8,3.517h-1.465Zm-11.921-.924c-1.069-2.539.31-5.589,3.443-10.5,2.138-3.411,5.057-2.731,13.364-2.731l-8.585,13.143a11.566,11.566,0,0,1-2.758-.616v-4.9c-1.379,1.838-5.036,5.164,2.341,6.163l-2.138,3.368c-2.566-.553-4.747-1.743-5.645-3.931Zm24.836,7.076c-1.508-10.625-2.6-13.43-3.721-14.7,0,18.275.31,18.063-.813,18.063-14.626,0-14.829.3-14.829-.818v-5.015a26.6,26.6,0,0,0,5.613.563,2.574,2.574,0,0,0,2.047-.91,2.542,2.542,0,0,0-.829-3.924l8.746-13.4c6.148,1.456,6.319,11.634,7.484,19.635a1.84,1.84,0,0,1-.7,1.71,1.86,1.86,0,0,1-2.981-1.2Z" transform="translate(-36.992 -185)" fill="#f28705"/>
  </g>
</svg>
