<svg xmlns="http://www.w3.org/2000/svg" width="72" height="72" viewBox="0 0 72 72">
  <g id="permit-management-72" transform="translate(-439 -28)">
    <g id="Group_6366" data-name="Group 6366" transform="translate(-1781 111)">
      <g id="assessment-40" transform="translate(1860 -113)">
        <g id="Group_6140" data-name="Group 6140" transform="translate(360 30)">
          <rect id="Rectangle_1908" data-name="Rectangle 1908" width="72" height="72" fill="none"/>
        </g>
      </g>
      <g id="permit-management-24" transform="translate(1221 -478)">
        <g id="action-tracker-24" transform="translate(999 395)">
          <g id="Group_5789" data-name="Group 5789">
            <g id="Group_5787" data-name="Group 5787">
              <g id="Group_5778" data-name="Group 5778">
                <g id="Group_5762" data-name="Group 5762">
                  <g id="Group_5739" data-name="Group 5739">
                    <rect id="Rectangle_1883" data-name="Rectangle 1883" width="71.6" height="71.6" fill="none"/>
                  </g>
                </g>
              </g>
            </g>
          </g>
        </g>
        <g id="Group_6247" data-name="Group 6247" transform="translate(999 395)">
          <g id="Group_6246" data-name="Group 6246" transform="translate(0 0)">
            <path id="Path_6493" data-name="Path 6493" d="M0,0H72V70.495H0Z" transform="translate(0 1.502)" fill="none"/>
          </g>
        </g>
        <g id="Group_6365" data-name="Group 6365" transform="translate(1.486 2)">
          <g id="Group_6237" data-name="Group 6237" transform="translate(1000.514 395)">
            <g id="Group_6240" data-name="Group 6240" transform="translate(0)">
              <g id="Group_6239" data-name="Group 6239">
                <path id="Union_1" data-name="Union 1" d="M39.906,68H6.743A6.785,6.785,0,0,1,0,61.208V6.8A6.793,6.793,0,0,1,6.771,0h52.3a6.8,6.8,0,0,1,6.776,6.8V61.191A6.788,6.788,0,0,1,59.1,68ZM6.771,61.208H39.906v-.017H59.071V6.8H6.771Z" fill="#f28705"/>
              </g>
            </g>
          </g>
          <path id="noun-id-card-1262898-FF9C34" d="M255.325,119.1a9.189,9.189,0,1,1-8.863,9.183A9.028,9.028,0,0,1,255.325,119.1Zm0,22.448c10.878,0,19.7,6.746,19.7,16.326H235.629C235.629,148.291,244.447,141.544,255.325,141.544Z" transform="translate(777.783 290.064)" fill="#f28705"/>
        </g>
      </g>
    </g>
  </g>
</svg>
