<svg xmlns="http://www.w3.org/2000/svg" width="72" height="72" viewBox="0 0 72 72">
  <g id="safety-plot-manager-72" transform="translate(-132 -178)">
    <g id="project-information-hub-24" transform="translate(-106.5 -218.469)">
      <path id="Path_6493" data-name="Path 6493" d="M0,0H72V72H0Z" transform="translate(238.5 396.469)" fill="none"/>
    </g>
    <g id="noun-architect-2655016" transform="translate(133.057 176.748)">
      <g id="Group_6361" data-name="Group 6361" transform="translate(30.549 3.252)">
        <path id="Path_6538" data-name="Path 6538" d="M50.472,23.421c-.017.192-.043.381-.043.576a7.86,7.86,0,1,0,15.706,0c0-.2-.029-.385-.041-.576H50.472Z" transform="translate(-45.726 -9.513)" fill="#f28705"/>
        <path id="Path_6539" data-name="Path 6539" d="M66.156,13.674C65.645,9.12,63,5.389,59.482,3.925v7.006a.751.751,0,0,1-1.5,0V3.447a8.436,8.436,0,0,0-1.791-.2,8.276,8.276,0,0,0-1.774.2v7.484a.75.75,0,1,1-1.5,0v-7C49.4,5.4,46.749,9.142,46.2,13.674H43.609v1.951H68.751V13.674Z" transform="translate(-43.609 -3.252)" fill="#f28705"/>
      </g>
      <g id="Group_6362" data-name="Group 6362" transform="translate(0.943 19.471)">
        <circle id="Ellipse_102" data-name="Ellipse 102" cx="2.409" cy="2.409" r="2.409" transform="translate(39.735 8.758)" fill="#f28705"/>
        <path id="Path_6540" data-name="Path 6540" d="M68.71,70.3l-8.078-26.44c-.814-3.015-3.565-8.364-9.808-8.364H48.86L43.1,49.479,37.343,35.5H35.406c-6.244,0-8.737,5.349-9.55,8.364l-2.006,6.568L18.14,29.458a1.085,1.085,0,0,0-.765-.777l-7.161-1.823a7.8,7.8,0,0,0-5.567,1.116A8.492,8.492,0,0,0,1.17,32.795a7.566,7.566,0,0,0,.636,5.319c.01.028,9.766,22.123,9.766,22.123l-.675.351C6,63.135,9.5,70.65,14.4,68.1l.532-.277,3.4,7.675a5.134,5.134,0,0,0,2.887,2.711,5.4,5.4,0,0,0,1.907.34,6.731,6.731,0,0,0,3.079-.789,6.359,6.359,0,0,0,3.138-3.539c-.044.864-.08,1.736-.1,2.62,0,.056,0,.126,0,.184H57.263c0-.058,0-.128,0-.184a88.809,88.809,0,0,0-5.385-28.323h2.563l7.324,24.336C63.4,78.161,70.289,75.983,68.71,70.3ZM3.882,37.524A5.255,5.255,0,0,1,3.2,33.381,6.279,6.279,0,0,1,5.8,29.843a5.688,5.688,0,0,1,4.048-.793L16.281,30.7l7.4,27.189s-10.6-23.923-10.623-23.958a5.863,5.863,0,0,0-.5-1.023,4.355,4.355,0,0,0-6.213-1.389A4.17,4.17,0,0,0,5.24,37.076a3.152,3.152,0,0,0,4.5,1.009,3.087,3.087,0,0,0,.827-4.114,2.523,2.523,0,0,0-.581-.664,2.411,2.411,0,0,1,.813.812,3.55,3.55,0,0,1-.948,4.739A4.179,4.179,0,0,1,3.882,37.524ZM25.27,75.76a4.148,4.148,0,0,1-3.355.35,2.965,2.965,0,0,1-1.682-1.553l-3.411-7.713L17,66.751c4.9-2.542,1.4-10.063-3.5-7.513l-.038.018L5.611,41.493A6.1,6.1,0,0,0,11,40.73a5.508,5.508,0,0,0,1.815-2.159L27.3,71.327C27.995,72.9,27.12,74.8,25.27,75.76Zm4.261-4.388a5.087,5.087,0,0,0-.319-.991l-.048-.109a1.159,1.159,0,0,0-.03-.447l-1.662-6.1,4.576-15.2h2.575A88.734,88.734,0,0,0,29.531,71.373Z" transform="translate(-0.943 -26.771)" fill="#f28705"/>
      </g>
    </g>
  </g>
</svg>
