<svg xmlns="http://www.w3.org/2000/svg" xmlns:xlink="http://www.w3.org/1999/xlink" width="36" height="36" viewBox="0 0 36 36">
  <defs>
    <clipPath id="clip-path">
      <rect id="Rectangle_1095" data-name="Rectangle 1095" width="36" height="36" fill="none"/>
    </clipPath>
  </defs>
  <g id="Mask_Group_1" data-name="Mask Group 1" clip-path="url(#clip-path)">
    <g id="menu" transform="translate(3 3)">
      <path id="Union_1" data-name="Union 1" d="M-3707.421-2658.421a3.474,3.474,0,0,1,3.473-3.474,3.474,3.474,0,0,1,3.474,3.474,3.474,3.474,0,0,1-3.474,3.474A3.474,3.474,0,0,1-3707.421-2658.421Zm-11.369,0a3.474,3.474,0,0,1,3.474-3.474,3.474,3.474,0,0,1,3.473,3.474,3.474,3.474,0,0,1-3.473,3.474A3.474,3.474,0,0,1-3718.789-2658.421Zm-11.368,0a3.474,3.474,0,0,1,3.474-3.474,3.474,3.474,0,0,1,3.473,3.474,3.474,3.474,0,0,1-3.473,3.474A3.474,3.474,0,0,1-3730.158-2658.421Zm22.737-11.369a3.473,3.473,0,0,1,3.473-3.473,3.473,3.473,0,0,1,3.474,3.473,3.474,3.474,0,0,1-3.474,3.474A3.474,3.474,0,0,1-3707.421-2669.79Zm-11.369,0a3.473,3.473,0,0,1,3.474-3.473,3.473,3.473,0,0,1,3.473,3.473,3.474,3.474,0,0,1-3.473,3.474A3.474,3.474,0,0,1-3718.789-2669.79Zm-11.368,0a3.473,3.473,0,0,1,3.474-3.473,3.473,3.473,0,0,1,3.473,3.473,3.474,3.474,0,0,1-3.473,3.474A3.474,3.474,0,0,1-3730.158-2669.79Zm22.737-12a3.475,3.475,0,0,1,3.475-3.475,3.475,3.475,0,0,1,3.475,3.475,3.475,3.475,0,0,1-3.475,3.475A3.475,3.475,0,0,1-3707.421-2681.788Zm-11.369,0a3.473,3.473,0,0,1,3.474-3.474,3.473,3.473,0,0,1,3.473,3.474,3.473,3.473,0,0,1-3.473,3.473A3.473,3.473,0,0,1-3718.789-2681.789Zm-11.368,0a3.473,3.473,0,0,1,3.474-3.474,3.473,3.473,0,0,1,3.473,3.474,3.473,3.473,0,0,1-3.473,3.473A3.473,3.473,0,0,1-3730.158-2681.789Z" transform="translate(3730.158 2685.263)" fill="#92a6b6"/>
    </g>
  </g>
</svg>
