<svg xmlns="http://www.w3.org/2000/svg" width="31" height="31" viewBox="0 0 31 31">
  <path id="Icon_awesome-question-circle" data-name="Icon awesome-question-circle" d="M31.563,16.063a15.5,15.5,0,1,1-15.5-15.5A15.5,15.5,0,0,1,31.563,16.063ZM16.478,5.688A8.1,8.1,0,0,0,9.194,9.672a.751.751,0,0,0,.17,1.016l2.169,1.644a.75.75,0,0,0,1.042-.133c1.117-1.416,1.882-2.237,3.581-2.237,1.277,0,2.856.822,2.856,2.06,0,.936-.773,1.417-2.033,2.124-1.47.824-3.416,1.85-3.416,4.416v.25a.75.75,0,0,0,.75.75h3.5a.75.75,0,0,0,.75-.75v-.083c0-1.779,5.2-1.853,5.2-6.667C23.762,8.437,20,5.688,16.478,5.688Zm-.416,15.5a2.875,2.875,0,1,0,2.875,2.875A2.878,2.878,0,0,0,16.063,21.188Z" transform="translate(-0.563 -0.563)" fill="#92a6b6"/>
</svg>
